<svg width="25" height="25" viewBox="0 0 25 25" fill="none" xmlns="http://www.w3.org/2000/svg">
<path opacity="0.4" d="M17.1699 20.626H7.16992C4.16992 20.626 2.16992 19.126 2.16992 15.626V8.62598C2.16992 5.12598 4.16992 3.62598 7.16992 3.62598H17.1699C20.1699 3.62598 22.1699 5.12598 22.1699 8.62598V15.626C22.1699 19.126 20.1699 20.626 17.1699 20.626Z" fill="#1C1B1B"/>
<path d="M12.1697 12.9959C11.3297 12.9959 10.4797 12.7359 9.8297 12.2059L6.6997 9.70595C6.3797 9.44595 6.3197 8.97595 6.5797 8.65595C6.8397 8.33595 7.30971 8.27595 7.62971 8.53595L10.7597 11.036C11.5197 11.646 12.8097 11.646 13.5697 11.036L16.6997 8.53595C17.0197 8.27595 17.4997 8.32595 17.7497 8.65595C18.0097 8.97595 17.9597 9.45595 17.6297 9.70595L14.4997 12.2059C13.8597 12.7359 13.0097 12.9959 12.1697 12.9959Z" fill="#1C1B1B"/>
</svg>
