<svg width="31" height="31" viewBox="0 0 31 31" fill="none" xmlns="http://www.w3.org/2000/svg">
<path fill-rule="evenodd" clip-rule="evenodd" d="M15.194 30.0784C23.4651 30.0784 30.1702 23.3733 30.1702 15.1022C30.1702 6.83105 23.4651 0.125977 15.194 0.125977C6.92284 0.125977 0.217773 6.83105 0.217773 15.1022C0.217773 23.3733 6.92284 30.0784 15.194 30.0784ZM10.694 11.126H6.69397V22.126H10.694V11.126ZM23.4521 11.4693C22.6245 10.5738 21.5298 10.126 20.1687 10.126C19.6672 10.126 19.2114 10.1871 18.8014 10.3095C18.3915 10.4318 18.0453 10.6033 17.7626 10.8243C17.4801 11.0452 17.2551 11.2503 17.0881 11.4396C16.9293 11.6193 16.774 11.8287 16.6224 12.0656V10.398H12.694L12.706 10.9661C12.7141 11.3449 12.7181 12.5125 12.7181 14.4691C12.7181 16.4258 12.7101 18.978 12.6941 22.126H16.6224V15.5814C16.6224 15.1791 16.6659 14.8596 16.7537 14.6228C16.921 14.2202 17.1734 13.8831 17.5119 13.6111C17.8504 13.3386 18.2701 13.2026 18.7718 13.2026C19.4561 13.2026 19.9598 13.4373 20.2822 13.9067C20.6045 14.3761 20.7657 15.025 20.7657 15.8535V22.1256H24.694V15.4041C24.6937 13.6761 24.2801 12.3645 23.4521 11.4693ZM7.25068 5.69328C7.62194 5.3152 8.10656 5.12598 8.70466 5.12598C9.3028 5.12598 9.78223 5.31504 10.1424 5.69328C10.5027 6.07145 10.6866 6.54892 10.6938 7.12602C10.7009 7.69525 10.519 8.17088 10.1479 8.55285C9.77678 8.93503 9.28845 9.12598 8.683 9.12598H8.66138C8.07044 9.12598 7.59472 8.93487 7.23448 8.55285C6.87413 8.17088 6.69397 7.69509 6.69397 7.12602C6.69397 6.54888 6.87947 6.07145 7.25068 5.69328Z" fill="#1C1B1B"/>
</svg>
