<svg width="31" height="31" viewBox="0 0 31 31" fill="none" xmlns="http://www.w3.org/2000/svg">
<path fill-rule="evenodd" clip-rule="evenodd" d="M15.2413 30.0784C23.5125 30.0784 30.2175 23.3733 30.2175 15.1022C30.2175 6.83105 23.5125 0.125977 15.2413 0.125977C6.97021 0.125977 0.265137 6.83105 0.265137 15.1022C0.265137 23.3733 6.97021 30.0784 15.2413 30.0784ZM22.7437 7.12598L16.7873 13.9009H16.787L23.2651 23.126H18.5008L14.1384 16.9138L8.67668 23.126H7.26514L13.5117 16.0214L7.26514 7.12598H12.0295L16.1603 13.0085L21.3322 7.12598H22.7437ZM14.2211 15.214L14.854 16.0998V16.1002L19.1648 22.1335H21.3329L16.0502 14.7397L15.4173 13.8539L11.3533 8.16572H9.18528L14.2211 15.214Z" fill="#1C1B1B"/>
</svg>
