<svg width="25" height="25" viewBox="0 0 25 25" fill="none" xmlns="http://www.w3.org/2000/svg">
<path opacity="0.4" d="M7.11022 20.7559C8.60022 21.6259 10.3302 22.1259 12.1702 22.1259C17.8002 22.1259 22.4802 17.1559 22.1502 11.5359C21.8102 5.73594 16.5402 1.26594 10.4702 2.26594C6.29021 2.95594 2.94021 6.34594 2.29021 10.5259C1.91021 12.9459 2.41024 15.2359 3.50024 17.1259L2.61022 20.4359C2.41022 21.1859 3.1002 21.8659 3.8402 21.6559L7.11022 20.7559Z" fill="#1C1B1B"/>
<path d="M17.1699 15.296C17.1699 15.476 17.1299 15.666 17.0399 15.846C16.9499 16.026 16.84 16.196 16.7 16.356C16.45 16.626 16.1799 16.826 15.8799 16.946C15.5799 17.076 15.2499 17.136 14.8999 17.136C14.3899 17.136 13.8399 17.016 13.2699 16.766C12.6899 16.516 12.1199 16.186 11.5499 15.776C10.9699 15.356 10.4299 14.886 9.90991 14.376C9.38991 13.856 8.92995 13.306 8.50995 12.736C8.09995 12.166 7.76991 11.596 7.52991 11.026C7.28991 10.456 7.16992 9.90596 7.16992 9.38596C7.16992 9.04596 7.22991 8.71595 7.34991 8.41595C7.46991 8.10595 7.65993 7.82595 7.92993 7.57595C8.24993 7.25595 8.59991 7.10596 8.96991 7.10596C9.10991 7.10596 9.24994 7.13595 9.37994 7.19595C9.50994 7.25595 9.62991 7.34595 9.71991 7.47595L10.8699 9.12595C10.9599 9.25595 11.0299 9.36595 11.0699 9.47595C11.1199 9.58595 11.1399 9.68596 11.1399 9.78596C11.1399 9.90596 11.0999 10.026 11.0299 10.146C10.9599 10.266 10.8699 10.386 10.7499 10.506L10.3699 10.906C10.3099 10.966 10.2899 11.026 10.2899 11.106C10.2899 11.146 10.2999 11.186 10.3099 11.226C10.3299 11.266 10.3399 11.296 10.3499 11.326C10.4399 11.496 10.5999 11.7059 10.8199 11.966C11.0499 12.226 11.2899 12.496 11.5499 12.756C11.8199 13.026 12.0799 13.266 12.3499 13.496C12.6099 13.716 12.8299 13.866 12.9999 13.956C13.0299 13.966 13.0599 13.986 13.0899 13.996C13.1299 14.016 13.1699 14.016 13.2199 14.016C13.3099 14.016 13.3699 13.986 13.4299 13.926L13.8099 13.546C13.9399 13.416 14.0599 13.326 14.1699 13.266C14.2899 13.196 14.3999 13.156 14.5299 13.156C14.6299 13.156 14.7299 13.176 14.8399 13.226C14.9499 13.276 15.0699 13.336 15.1899 13.426L16.8499 14.606C16.9799 14.696 17.0699 14.806 17.1299 14.926C17.1399 15.036 17.1699 15.156 17.1699 15.296Z" fill="#1C1B1B"/>
</svg>
