<svg width="386" height="386" viewBox="0 0 386 386" fill="none" xmlns="http://www.w3.org/2000/svg">
<circle cx="193.424" cy="192.572" r="142.451" stroke="#FAE5F0" stroke-width="100.243"/>
<path d="M193.426 39.568C277.927 39.568 346.429 108.07 346.429 192.571C346.429 277.072 277.927 345.574 193.426 345.574C108.925 345.574 40.4235 277.072 40.4235 192.571C40.4235 108.07 108.925 39.568 193.426 39.568ZM259.477 143.733C255.991 140.248 250.484 140.015 246.729 143.036L245.953 143.733L168.563 221.123L140.9 193.459C137.165 189.725 131.11 189.725 127.376 193.459C123.89 196.945 123.658 202.451 126.679 206.206L127.376 206.983L161.802 241.408C165.287 244.894 170.794 245.126 174.549 242.105L175.325 241.408L259.477 157.257C263.211 153.522 263.211 147.468 259.477 143.733Z" fill="#E04E9B"/>
</svg>
